<?xml version="1.0" standalone="no"?>
<!DOCTYPE svg PUBLIC "-//W3C//DTD SVG 20010904//EN"
 "http://www.w3.org/TR/2001/REC-SVG-20010904/DTD/svg10.dtd">
<svg version="1.0" xmlns="http://www.w3.org/2000/svg"
 width="554.000000pt" height="554.000000pt" viewBox="0 0 554.000000 554.000000"
 preserveAspectRatio="xMidYMid meet">
<metadata>
Created by potrace 1.14, written by Peter Selinger 2001-2017
</metadata>
<g transform="translate(0.000000,554.000000) scale(0.100000,-0.100000)"
fill="#000000" stroke="none">
<path d="M3833 4929 c-103 -63 -222 -173 -307 -287 -59 -78 -83 -124 -56 -107
5 3 7 0 4 -9 -3 -8 -13 -17 -21 -20 -13 -5 -14 -4 -3 9 21 26 -11 18 -63 -15
-26 -16 -47 -26 -47 -21 0 48 104 281 164 368 l36 52 -35 -20 c-19 -12 -32
-26 -28 -32 3 -5 1 -7 -4 -4 -13 8 -96 -50 -88 -62 2 -5 -2 -12 -11 -15 -10
-4 -13 -2 -8 7 6 9 4 9 -7 1 -119 -89 -220 -184 -201 -191 6 -3 9 -9 6 -15 -4
-6 -9 -6 -14 2 -6 9 -18 2 -42 -25 -52 -59 -80 -104 -72 -117 4 -7 3 -8 -4 -4
-16 10 -46 -52 -33 -68 7 -8 6 -16 -1 -26 -8 -12 -9 -12 -4 2 9 29 -13 31 -24
2 -8 -21 -8 -30 2 -37 9 -6 7 -7 -6 -3 -15 5 -17 2 -13 -14 5 -19 3 -20 -11
-8 -9 7 -19 15 -22 19 -3 3 -21 17 -41 32 -37 28 -55 35 -44 17 4 -6 3 -9 -2
-8 -4 2 -19 -5 -33 -14 l-24 -18 32 -31 c18 -18 36 -28 43 -23 8 4 9 3 5 -4
-8 -13 56 -82 75 -82 7 0 9 -3 6 -7 -4 -3 1 -12 11 -19 9 -7 15 -15 12 -18 -3
-2 -26 14 -50 37 -25 23 -49 40 -55 38 -5 -1 -7 1 -2 5 4 4 0 16 -9 26 -14 15
-20 16 -33 5 -14 -10 -14 -10 -5 3 9 12 7 20 -10 37 l-21 22 -28 -25 c-16 -14
-25 -29 -21 -36 4 -6 3 -8 -3 -5 -6 4 2 -25 19 -64 35 -84 78 -247 78 -297 0
-35 0 -35 18 -16 10 10 29 35 42 54 13 19 32 44 42 54 10 11 18 23 18 27 0 4
13 16 30 25 l30 18 -23 25 c-19 23 -19 24 -1 9 20 -17 21 -17 49 12 16 17 32
30 37 30 4 0 16 8 27 18 55 52 90 82 95 82 3 0 27 14 53 30 76 49 95 39 39
-21 -33 -35 -136 -181 -136 -194 0 -4 -7 -13 -15 -22 -14 -13 -12 -19 14 -52
49 -61 55 -65 93 -47 53 24 138 45 216 52 63 6 72 4 72 -10 0 -9 -4 -16 -9
-16 -8 0 -216 -203 -279 -274 l-33 -37 98 2 98 1 55 56 c75 75 93 86 119 72
24 -13 100 -11 118 3 9 6 11 3 8 -11 -2 -13 12 -34 42 -63 25 -24 43 -36 40
-26 -4 11 -3 16 4 12 6 -4 8 -13 5 -20 -3 -8 2 -19 10 -25 8 -7 14 -25 14 -41
0 -18 5 -29 14 -29 7 0 30 -11 50 -25 44 -30 45 -20 7 62 -25 51 -33 61 -51
58 -11 -2 -18 0 -15 6 4 5 11 7 16 4 25 -16 4 17 -34 52 -55 51 -94 76 -105
69 -5 -3 -9 1 -9 9 0 32 200 11 320 -32 38 -13 70 -23 73 -21 8 8 -18 78 -37
100 l-20 23 11 -25 c11 -24 10 -24 -5 -5 -8 11 -13 26 -10 33 3 8 -3 16 -15
19 -11 3 -20 9 -20 13 0 4 -12 15 -26 25 -15 9 -23 11 -19 4 5 -8 4 -10 -3 -5
-7 4 -12 2 -12 -4 0 -6 -5 -8 -11 -4 -8 4 -7 9 2 15 12 8 11 11 -1 19 -8 6
-23 8 -33 6 -9 -2 -15 0 -12 4 6 9 -75 35 -142 46 -24 4 -43 10 -43 14 0 22
126 74 200 84 110 15 302 -29 381 -86 l42 -30 -6 48 c-13 109 -67 205 -150
265 l-40 29 54 0 c64 0 155 -20 222 -49 26 -11 47 -17 47 -13 0 41 -151 198
-180 187 -8 -4 -11 -3 -7 1 10 11 -58 41 -122 55 -30 6 -78 9 -107 7 l-53 -5
31 40 c65 82 199 177 321 227 53 22 56 25 35 33 -13 5 -66 12 -118 14 -125 7
-227 -18 -373 -91 l-109 -54 7 36 c4 20 19 61 35 91 25 51 43 76 110 164 12
15 20 27 18 27 -1 0 -40 -23 -85 -51z m-373 -109 c0 -5 -2 -10 -4 -10 -3 0 -8
5 -11 10 -3 6 -1 10 4 10 6 0 11 -4 11 -10z m-240 -200 c0 -5 -2 -10 -4 -10
-3 0 -8 5 -11 10 -3 6 -1 10 4 10 6 0 11 -4 11 -10z m-15 -30 c-3 -5 -12 -10
-18 -10 -7 0 -6 4 3 10 19 12 23 12 15 0z m-77 -54 c-7 -8 -15 -12 -17 -11 -5
6 10 25 20 25 5 0 4 -6 -3 -14z m199 -68 c-3 -8 -6 -5 -6 6 -1 11 2 17 5 13 3
-3 4 -12 1 -19z m-266 -25 c-12 -20 -14 -14 -5 12 4 9 9 14 11 11 3 -2 0 -13
-6 -23z m376 -9 c-3 -3 -12 -4 -19 -1 -8 3 -5 6 6 6 11 1 17 -2 13 -5z m864
-51 c13 -16 12 -17 -3 -4 -10 7 -18 15 -18 17 0 8 8 3 21 -13z m60 -60 c13
-16 12 -17 -3 -4 -10 7 -18 15 -18 17 0 8 8 3 21 -13z m-1601 -123 c0 -5 -2
-10 -4 -10 -3 0 -8 5 -11 10 -3 6 -1 10 4 10 6 0 11 -4 11 -10z m145 -70 c10
-11 16 -20 13 -20 -3 0 -13 9 -23 20 -10 11 -16 20 -13 20 3 0 13 -9 23 -20z
m91 -52 l19 -21 -27 18 c-29 18 -34 25 -20 25 5 0 17 -10 28 -22z m774 -374
c0 -2 -9 0 -20 6 -11 6 -20 13 -20 16 0 2 9 0 20 -6 11 -6 20 -13 20 -16z m21
-31 c12 -16 12 -17 -2 -6 -9 7 -20 9 -24 5 -5 -4 -5 -1 -1 6 9 16 11 15 27 -5z"/>
<path d="M2565 4442 c18 -12 71 -84 107 -144 26 -43 37 -55 46 -46 8 8 7 15
-6 25 -15 13 -15 13 4 4 17 -8 25 -7 34 4 17 21 -16 61 -36 44 -10 -8 -12 -6
-9 10 2 14 -8 30 -32 51 -19 17 -33 34 -30 36 3 3 33 -22 68 -56 l63 -62 24
28 c22 25 22 28 7 37 -12 6 -20 5 -27 -4 -7 -11 -8 -10 -6 5 2 15 -10 24 -60
42 -35 14 -67 22 -72 19 -5 -3 -11 -1 -15 5 -3 5 -21 10 -38 10 -18 0 -27 -4
-22 -8z m55 -22 c6 -11 8 -20 6 -20 -3 0 -10 9 -16 20 -6 11 -8 20 -6 20 3 0
10 -9 16 -20z m30 -40 c0 -5 -4 -10 -10 -10 -5 0 -10 5 -10 10 0 6 5 10 10 10
6 0 10 -4 10 -10z"/>
<path d="M3085 3910 c-4 -16 -4 -34 -1 -39 4 -5 2 -12 -4 -16 -12 -7 -14 -45
-2 -45 5 0 18 9 29 20 12 10 33 22 47 26 40 10 40 20 -1 53 -47 39 -60 39 -68
1z m78 -23 c4 3 7 4 7 0 0 -17 -20 -14 -36 6 -19 22 -19 22 2 4 11 -9 24 -14
27 -10z"/>
<path d="M3486 3670 c-51 -48 -65 -77 -32 -64 8 3 17 1 21 -5 4 -8 13 -6 28 4
41 28 114 15 129 -24 5 -13 158 -25 158 -12 0 17 -82 101 -92 94 -5 -3 -12 4
-15 16 -6 22 -7 23 -63 26 -19 1 -45 6 -57 10 -18 6 -32 -3 -77 -45z m231 -35
c0 -8 -4 -12 -9 -9 -5 3 -6 10 -3 15 9 13 12 11 12 -6z"/>
<path d="M2400 3269 c-25 -4 -78 -19 -117 -34 -78 -29 -88 -44 -55 -82 16 -19
23 -20 74 -12 66 11 113 16 146 18 19 1 22 6 22 44 0 62 -15 75 -70 66z"/>
<path d="M2762 3175 c-7 -14 -12 -38 -12 -54 0 -25 6 -29 73 -51 118 -38 132
-40 145 -19 27 42 16 57 -78 104 -49 25 -96 45 -103 45 -8 0 -19 -11 -25 -25z"/>
<path d="M3941 3174 c-53 -67 -79 -246 -44 -304 16 -27 15 -32 -11 -104 -33
-95 -81 -178 -141 -244 -26 -28 -44 -56 -40 -62 3 -6 0 -7 -9 -4 -9 3 -27 -4
-42 -15 -29 -23 -113 -51 -152 -51 -17 0 -23 -5 -20 -17 6 -29 76 -21 155 17
126 61 232 201 299 393 13 37 21 46 35 42 9 -3 20 -1 24 5 3 6 11 8 16 4 6 -3
18 -3 27 1 15 6 15 8 -3 16 -15 6 -10 7 15 4 39 -6 77 16 64 36 -4 8 -3 10 4
5 7 -4 12 -3 12 3 0 5 -5 13 -10 16 -6 4 -8 15 -5 25 3 11 0 20 -10 24 -13 5
-15 1 -10 -17 5 -20 5 -20 -5 -4 -7 10 -9 24 -7 31 3 7 -3 18 -13 24 -14 9
-20 8 -23 -1 -2 -7 -8 -8 -13 -4 -5 4 -2 12 5 17 21 12 -10 40 -44 40 -22 0
-25 3 -20 21 5 14 0 29 -17 47 -18 21 -19 23 -2 9 30 -25 35 -21 32 25 -4 51
-19 58 -47 22z m75 -145 c3 -6 1 -16 -6 -22 -10 -9 -11 -9 -6 1 5 7 1 12 -9
12 -9 0 -13 5 -10 10 8 13 22 13 31 -1z m-36 -94 c0 -8 -4 -15 -9 -15 -13 0
-22 16 -14 24 11 11 23 6 23 -9z m70 -61 c0 -2 -13 -4 -30 -4 -16 0 -30 4 -30
8 0 5 14 7 30 4 17 -2 30 -6 30 -8z m-60 -18 c0 -3 -4 -8 -10 -11 -5 -3 -10
-1 -10 4 0 6 5 11 10 11 6 0 10 -2 10 -4z"/>
<path d="M1254 3155 c-3 -14 -2 -44 4 -67 7 -25 7 -47 2 -53 -6 -7 -2 -15 11
-23 23 -15 25 -40 4 -49 -13 -5 -13 -8 5 -20 25 -18 25 -33 1 -59 -34 -37 -18
-97 17 -62 8 8 12 9 12 1 0 -6 -4 -13 -10 -15 -14 -4 16 -138 51 -229 32 -82
91 -180 130 -216 50 -46 138 -83 195 -83 47 0 54 2 54 20 0 17 -7 20 -47 20
-138 0 -256 128 -316 341 -35 123 -44 188 -27 199 38 23 11 233 -37 290 -30
37 -41 38 -49 5z"/>
<path d="M4050 3047 c0 -6 33 -40 59 -62 23 -19 23 -17 -3 18 -16 20 -24 37
-18 37 5 0 13 -7 16 -16 3 -8 11 -12 16 -9 18 11 -10 35 -41 35 -16 0 -29 -2
-29 -3z"/>
<path d="M2215 3026 c-64 -28 -105 -101 -105 -186 0 -43 5 -55 33 -85 83 -91
208 -30 239 116 14 68 -5 119 -54 149 -38 23 -71 25 -113 6z m133 -68 c18 -18
14 -62 -8 -86 -26 -28 -36 -28 -56 3 -32 48 25 122 64 83z m-48 -147 c0 -10
-7 -24 -16 -31 -12 -11 -18 -11 -30 2 -20 20 -7 48 22 48 17 0 24 -6 24 -19z"/>
<path d="M2644 2941 c-41 -25 -70 -68 -85 -124 -23 -84 19 -162 94 -174 50 -8
80 2 116 39 71 72 82 196 22 250 -38 34 -100 38 -147 9z m159 -72 c14 -22 -9
-76 -35 -84 -41 -14 -63 41 -35 85 14 24 55 23 70 -1z m-57 -124 c7 -18 -13
-45 -33 -45 -17 0 -27 24 -19 45 7 20 45 19 52 0z"/>
<path d="M2580 2323 c-57 -22 -76 -24 -155 -20 -51 3 -107 12 -129 22 -37 16
-38 16 -31 -2 12 -29 22 -63 50 -155 l26 -86 72 5 c66 5 77 3 130 -25 l57 -31
27 52 c22 43 27 69 31 150 2 54 0 102 -4 107 -5 4 -38 -3 -74 -17z"/>
<path d="M3215 1290 c-11 -17 4 -61 32 -99 36 -46 94 -71 172 -71 56 0 62 -2
55 -17 -17 -38 -16 -110 1 -137 37 -56 66 -28 143 138 23 49 42 95 42 102 0
20 -22 17 -93 -12 -84 -34 -191 -43 -237 -19 -42 22 -67 51 -78 89 -9 32 -26
44 -37 26z"/>
<path d="M2262 1041 c3 -85 8 -106 33 -156 36 -70 76 -105 99 -86 13 11 11 16
-15 38 -51 43 -72 97 -77 198 -4 83 -11 104 -36 105 -4 0 -7 -44 -4 -99z"/>
<path d="M2580 808 c-14 -5 -58 -8 -98 -5 -52 3 -75 0 -83 -9 -9 -11 -5 -16
16 -24 14 -5 33 -10 41 -10 17 0 17 -8 -1 -40 -17 -29 -20 -113 -5 -141 16
-29 46 -23 73 14 36 48 127 202 127 216 0 13 -36 13 -70 -1z"/>
</g>
</svg>
